<svg width="25" height="25" viewBox="0 0 25 25" fill="none" xmlns="http://www.w3.org/2000/svg">
<g clip-path="url(#clip0)">
<path d="M21.0576 5.26637C20.5469 4.75537 19.9405 4.35001 19.273 4.07345C18.6055 3.79689 17.8901 3.65454 17.1676 3.65454C16.4452 3.65454 15.7298 3.79689 15.0623 4.07345C14.3948 4.35001 13.7884 4.75537 13.2776 5.26637L12.2176 6.32637L11.1576 5.26637C10.126 4.23467 8.72668 3.65508 7.26765 3.65508C5.80862 3.65508 4.40934 4.23467 3.37765 5.26637C2.34596 6.29806 1.76636 7.69733 1.76636 9.15637C1.76636 10.6154 2.34596 12.0147 3.37765 13.0464L4.43765 14.1064L12.2176 21.8864L19.9976 14.1064L21.0576 13.0464C21.5686 12.5356 21.974 11.9292 22.2506 11.2617C22.5271 10.5943 22.6695 9.87885 22.6695 9.15637C22.6695 8.43388 22.5271 7.71847 22.2506 7.05101C21.974 6.38355 21.5686 5.77712 21.0576 5.26637V5.26637Z" stroke="#555555" stroke-width="2" stroke-linecap="round" stroke-linejoin="round"/>
</g>
<defs>
<clipPath id="clip0">
<rect width="24" height="24" fill="white" transform="translate(0.217651 0.656372)"/>
</clipPath>
</defs>
</svg>
