<svg width="30" height="30" viewBox="0 0 30 30" fill="none" xmlns="http://www.w3.org/2000/svg">
<path d="M25.8165 12.7596C25.8165 21.2384 14.9151 28.5059 14.9151 28.5059C14.9151 28.5059 4.01382 21.2384 4.01382 12.7596C4.01382 9.86839 5.16235 7.09559 7.20675 5.0512C9.25114 3.0068 12.0239 1.85828 14.9151 1.85828C17.8064 1.85828 20.5791 3.0068 22.6235 5.0512C24.6679 7.09559 25.8165 9.86839 25.8165 12.7596Z" fill="#555555"/>
<path d="M14.9153 16.3933C16.9221 16.3933 18.549 14.7664 18.549 12.7595C18.549 10.7526 16.9221 9.12573 14.9153 9.12573C12.9084 9.12573 11.2815 10.7526 11.2815 12.7595C11.2815 14.7664 12.9084 16.3933 14.9153 16.3933Z" stroke="white" stroke-width="2.42252" stroke-linecap="round" stroke-linejoin="round"/>
</svg>
