<svg width="30" height="30" viewBox="0 0 30 30" fill="none" xmlns="http://www.w3.org/2000/svg">
<g clip-path="url(#clip0)">
<path d="M3.05531 11.2355C5.10998 11.2355 7.29473 12.9342 7.29473 16.0806C7.29473 17.6774 6.68437 18.8177 6.09411 19.9213C5.46598 21.096 4.8722 22.2055 4.8722 23.9538C4.8722 26.8068 6.25854 28.1932 9.11162 28.1932H9.78784C8.99925 27.4228 8.50597 26.3518 8.50597 25.1651V22.7425C8.50597 19.6304 10.3051 18.0501 11.6181 16.8968C11.8724 16.6732 12.1114 16.4639 12.3172 16.258C12.6189 15.9564 13.0234 15.5944 13.4646 15.2006C14.5552 14.2282 16.3792 12.6006 16.3792 11.8412V5.78489C16.3792 4.03897 17.6933 3.20741 18.3061 2.91523C18.5604 2.1736 19.3778 0.334229 21.2242 0.334229C21.5589 0.334229 21.8298 0.605115 21.8298 0.939876C21.8298 1.8779 22.2462 2.75676 22.4355 2.75676C23.3096 2.75676 23.8324 3.54103 24.2524 4.17269C24.4073 4.40451 24.554 4.62452 24.6806 4.75114C24.8296 4.90018 25.0484 5.05041 25.2744 5.21007C25.9309 5.67497 26.6749 6.20249 26.6749 6.99618C26.6749 9.20222 24.0749 10.0243 22.4355 10.0243C22.0723 10.0243 21.9612 10.0515 21.947 10.0515C21.947 10.0515 21.947 10.0515 21.9458 10.0515C21.8286 10.2218 21.8286 11.109 21.8298 12.1357V12.4468C21.8298 12.7425 21.9363 12.933 22.1587 13.3032C22.5313 13.9242 23.0411 14.7735 23.0411 16.6862C23.0411 17.9625 22.1126 19.9036 21.8299 20.4654V25.7706H22.4355C23.4374 25.7706 24.2524 26.5856 24.2524 27.5875V28.7988C24.2524 29.1335 23.9815 29.4044 23.6467 29.4044H9.11162C5.59611 29.4044 3.66096 27.4693 3.66096 23.9538C3.66096 21.9027 4.38606 20.5459 5.026 19.35C5.59378 18.289 6.08349 17.3734 6.08349 16.0806C6.08349 13.4145 4.27251 12.4468 3.05536 12.4468C2.7206 12.4468 2.44972 12.176 2.44972 11.8412C2.44972 11.5064 2.7206 11.2355 3.05531 11.2355Z"/>
</g>
<defs>
<clipPath id="clip0">
<rect width="29.0702" height="29.0702" fill="white" transform="matrix(-1 0 0 1 29.0973 0.334229)"/>
</clipPath>
</defs>
</svg>
