<svg width="30" height="30" viewBox="0 0 30 30" fill="none" xmlns="http://www.w3.org/2000/svg">
<g clip-path="url(#clip0)">
<path d="M28.9185 7.02935L25.9501 5.83174C25.7688 4.87351 25.0406 4.10632 24.1036 3.8682L23.943 2.01836C23.9201 1.75448 23.743 1.52925 23.492 1.44472C23.241 1.36019 22.9637 1.43228 22.7858 1.62858L22.0092 2.48511L21.5328 0.81742C21.4534 0.539706 21.2041 0.344743 20.9154 0.334677C20.6269 0.325721 20.3645 0.501809 20.266 0.773453L16.1553 12.1137C13.1983 12.8815 10.6162 14.7737 9.03026 17.3485C7.57759 19.7069 7.12638 22.4088 7.75975 24.9565C8.12991 26.4455 8.83271 27.4267 9.55164 28.07H8.98622C8.98089 28.07 8.97556 28.0701 8.97023 28.0702C6.29561 28.1355 3.81698 26.6148 2.65957 24.1986C2.50065 23.8668 2.10281 23.7268 1.77099 23.8856C1.43917 24.0446 1.29905 24.4424 1.45804 24.7742C2.8133 27.6036 5.68282 29.4045 8.80695 29.4045C8.86927 29.4045 21.5253 29.4045 21.5253 29.4045C21.8933 29.4045 22.1915 29.1063 22.1915 28.7383C22.1915 26.9452 20.7612 26.1279 19.4989 25.8279C20.0892 24.6772 20.1402 23.6652 20.0732 23.0032L20.2473 22.98L24.2401 29.1022C24.3631 29.2907 24.5729 29.4044 24.7981 29.4044H27.2225C27.4651 29.4044 27.6885 29.2725 27.8057 29.0602C27.923 28.8478 27.9154 28.5884 27.7861 28.3832C27.7603 28.3423 25.2572 24.368 23.9116 22.1428V10.9495C24.1096 10.9723 24.3321 10.9838 24.5285 10.9838C26.461 10.9838 28.2785 9.89353 29.2571 7.96034C29.2579 7.95878 29.283 7.90638 29.287 7.89631C29.4247 7.55517 29.2597 7.16694 28.9185 7.02935Z" fill="#777777"/>
</g>
<defs>
<clipPath id="clip0">
<rect width="29.0702" height="29.0702" fill="white" transform="translate(0.828999 0.334229)"/>
</clipPath>
</defs>
</svg>
