<svg width="30" height="30" viewBox="0 0 30 30" fill="none" xmlns="http://www.w3.org/2000/svg">
<g clip-path="url(#clip0)">
<path d="M23.3596 23.4408C23.2933 24.4076 22.9247 25.3085 22.2946 26.0452C21.6647 26.782 20.8321 27.2853 19.8868 27.5011C19.5539 27.5771 19.2184 27.6146 18.8843 27.6146C18.2698 27.6146 17.6607 27.4875 17.0865 27.2347C15.9625 26.7405 14.7564 26.4935 13.5501 26.4935C12.3647 26.4935 11.1792 26.7319 10.0716 27.2092L10.0135 27.2347C9.12566 27.6248 8.15734 27.7169 7.21208 27.5011C6.26748 27.2846 5.43489 26.7814 4.80434 26.0446C4.17491 25.3073 3.80696 24.4071 3.74043 23.4403C3.67389 22.4736 3.91542 21.5307 4.43839 20.715L7.59045 15.7977C8.89855 13.7573 11.1264 12.539 13.5501 12.539C15.9738 12.539 18.2015 13.7573 19.5096 15.7977L22.6616 20.715C23.1848 21.5312 23.4261 22.4736 23.3596 23.4408Z" fill="white"/>
<path d="M5.28769 15.7913C6.22541 15.4311 6.93779 14.6755 7.29354 13.6637C7.63221 12.7004 7.60449 11.6132 7.21525 10.6021C6.82579 9.59119 6.1174 8.76614 5.22071 8.27865C4.27833 7.76632 3.24325 7.68315 2.30708 8.04377C0.423653 8.76791 -0.440655 11.0956 0.380626 13.2332C1.03668 14.9347 2.56679 16.0089 4.11376 16.0089C4.50877 16.0089 4.90488 15.9388 5.28769 15.7913Z" fill="white"/>
<path d="M15.6741 7.07414C15.6741 8.86552 14.8191 10.4338 13.5502 11.2779C12.919 11.6982 12.1851 11.9391 11.4035 11.9391C9.04924 11.9391 7.13388 9.75622 7.13388 7.07414C7.13388 4.39072 9.04924 2.20789 11.4035 2.20789C12.1851 2.20789 12.919 2.44875 13.5502 2.86904C14.8191 3.71316 15.6741 5.28187 15.6741 7.07414Z" fill="white"/>
<path d="M23.9069 10.1412C23.2684 12.0617 21.595 13.3119 19.8779 13.3119C19.5104 13.3119 19.1407 13.2547 18.7783 13.1343C16.7265 12.452 15.6877 9.99928 16.463 7.66696C16.8299 6.56179 17.5491 5.63981 18.4875 5.07115C19.47 4.47653 20.5721 4.33503 21.591 4.6737C22.6101 5.01282 23.4081 5.78531 23.8386 6.84967C24.2504 7.86634 24.2748 9.03539 23.9069 10.1412Z" fill="white"/>
<path d="M28.2441 18.0806C27.3777 19.2501 26.0812 19.8862 24.8349 19.8862C24.1197 19.8862 23.421 19.6773 22.8297 19.2388C21.2087 18.0391 20.9962 15.5653 22.356 13.7249C23.7176 11.8859 26.1457 11.366 27.7699 12.5656L27.7703 12.5663C29.392 13.7671 29.6045 16.2407 28.2441 18.0806Z" fill="white"/>
<path d="M13.5503 11.2779V2.86902C14.8192 3.71314 15.6741 5.28185 15.6741 7.07412C15.6741 8.8655 14.8192 10.4338 13.5503 11.2779Z" fill="white"/>
<path d="M22.6618 20.715C23.185 21.5312 23.4263 22.4736 23.3598 23.4408C23.2934 24.4076 22.9248 25.3085 22.2947 26.0452C21.6649 26.782 20.8323 27.2853 19.887 27.5011C19.5541 27.5771 19.2185 27.6146 18.8845 27.6146C18.2699 27.6146 17.6609 27.4875 17.0867 27.2347C15.9627 26.7405 14.7566 26.4935 13.5503 26.4935V12.539C15.974 12.539 18.2016 13.7573 19.5097 15.7977L22.6618 20.715Z" fill="white"/>
</g>
<defs>
<clipPath id="clip0">
<rect width="29.0702" height="29.0702" fill="white" transform="translate(0.0700989 0.334229)"/>
</clipPath>
</defs>
</svg>
