<svg width="30" height="30" viewBox="0 0 30 30" fill="none" xmlns="http://www.w3.org/2000/svg">
<g clip-path="url(#clip0)">
<path d="M29.9044 6.64409C29.4947 6.49185 28.1324 5.9345 27.8045 5.15377L27.7991 5.14092C27.4377 4.28034 26.5913 2.26483 24.2314 2.26483C21.2128 2.26483 20.3435 5.05825 20.1999 5.61826C19.9552 6.57253 19.4462 8.55761 14.9751 11.6789C13.6832 12.5807 11.2314 14.7281 9.01253 16.9022C7.52105 18.3636 5.04752 20.9042 5.2388 21.5122C5.25763 21.572 5.31699 21.6684 5.5038 21.6684C5.5038 21.6684 5.50388 21.6684 5.50397 21.6684C5.68431 21.6684 5.96564 21.581 6.35808 21.395C6.16795 21.5677 5.91481 21.7965 5.64318 22.038C3.36334 24.0647 0.928535 26.2881 0.898437 27.0199C0.895121 27.1 0.917591 27.1659 0.965184 27.2157C1.13085 27.3892 1.30995 27.4736 1.51276 27.4736C1.73588 27.4736 1.95967 27.3721 2.19656 27.2646C2.47673 27.1376 2.76644 27.0063 3.10539 27.0063C3.18292 27.0063 3.26103 27.0134 3.33772 27.0275L3.36036 27.0295C3.54484 27.0292 4.41653 26.5081 6.5118 25.2286C8.49837 24.0154 11.2192 22.354 11.6617 22.354C11.6704 22.354 11.6744 22.3549 11.6747 22.3549C11.9761 22.4771 14.3202 23.047 16.9867 23.047C17.1225 23.047 17.2563 23.0452 17.3887 23.0422C17.983 23.582 18.7406 24.2546 19.043 24.4561C19.1871 24.5522 19.3109 24.6539 19.4306 24.7522C19.5317 24.8352 19.6351 24.9203 19.7498 25.0007C19.6142 25.0474 19.4676 25.1014 19.3123 25.1623C19.1427 25.2287 19.0587 25.4208 19.1251 25.5905C19.1751 25.7179 19.2959 25.8003 19.4327 25.8004C19.4565 25.8004 19.4621 25.8004 20.1202 25.5745C20.3567 25.4933 20.6224 25.402 20.6885 25.382C20.8317 25.4068 20.9828 25.4194 21.1382 25.4194C21.7307 25.4194 22.2251 25.2408 22.347 25.193C22.4674 25.2287 22.962 25.3812 23.2716 25.5591C23.3389 25.5977 23.3975 25.5843 23.4269 25.5375C23.4502 25.5003 23.4468 25.4502 23.4169 25.3887L23.1997 25.0841C23.2543 25.0874 23.3093 25.0896 23.3652 25.0896C23.9576 25.0896 24.452 24.911 24.5739 24.8632C24.6944 24.8989 25.1891 25.0514 25.4986 25.2291C25.5259 25.2448 25.5492 25.2521 25.5722 25.2521C25.6059 25.2521 25.6364 25.2354 25.6538 25.2077C25.6771 25.1704 25.6738 25.1203 25.6438 25.0588L25.4072 24.7269C25.4001 24.7173 25.2274 24.49 24.8716 24.3752C24.7472 24.3351 24.598 24.3138 24.4402 24.3138C24.2043 24.3138 24.0549 24.3473 23.9232 24.3769C23.8195 24.4001 23.73 24.4201 23.6142 24.4201C23.472 24.4201 23.3026 24.3891 23.0808 24.3226C22.6014 24.1789 21.5225 23.1937 20.818 22.5137C21.3926 22.3218 21.9034 22.0796 22.3452 21.7852C25.5662 19.6387 25.7168 16.5822 25.8069 14.756C25.8244 14.3987 25.8397 14.09 25.8766 13.8576C25.9704 13.2667 26.0606 12.5272 26.1479 11.8121C26.2679 10.8291 26.3811 9.90059 26.4878 9.48402C26.8083 8.2325 27.9065 7.34845 29.7519 6.85635C29.9282 6.80934 29.9649 6.79955 29.9682 6.73131C29.9701 6.694 29.9472 6.66001 29.9044 6.64409ZM19.718 22.8037C20.2942 23.3256 20.9848 23.9353 21.2701 24.1255C21.4133 24.221 21.5365 24.3235 21.6555 24.4226C21.7535 24.5042 21.8499 24.5845 21.9549 24.6597C21.8543 24.6722 21.772 24.6904 21.6962 24.7074C21.5925 24.7307 21.5029 24.7508 21.3869 24.7508C21.2449 24.7508 21.0756 24.7198 20.8541 24.6534C20.4004 24.5173 19.41 23.6282 18.7081 22.957C19.0597 22.9182 19.3971 22.8676 19.718 22.8037Z" fill="#777777"/>
</g>
<defs>
<clipPath id="clip0">
<rect width="29.0702" height="29.0702" fill="white" transform="translate(0.898361 0.334229)"/>
</clipPath>
</defs>
</svg>
